<?xml version="1.0" standalone="no"?>
<!DOCTYPE svg PUBLIC "-//W3C//DTD SVG 20010904//EN"
 "http://www.w3.org/TR/2001/REC-SVG-20010904/DTD/svg10.dtd">
<svg version="1.0" xmlns="http://www.w3.org/2000/svg"
 width="700.000000pt" height="700.000000pt" viewBox="0 0 700.000000 700.000000"
 preserveAspectRatio="xMidYMid meet">
<metadata>
Created by potrace 1.11, written by Peter Selinger 2001-2013
</metadata>
<g transform="translate(0.000000,700.000000) scale(0.100000,-0.100000)"
fill="#000000" stroke="none">
<path d="M3279 6996 c-2 -2 -42 -6 -89 -10 -47 -4 -98 -9 -114 -12 -15 -2 -47
-7 -70 -9 -22 -2 -52 -6 -66 -9 -14 -3 -43 -7 -65 -11 -22 -3 -47 -7 -55 -10
-8 -2 -26 -6 -40 -9 -380 -67 -927 -302 -1262 -541 -31 -22 -66 -47 -78 -55
-44 -29 -186 -144 -265 -214 -357 -315 -680 -754 -865 -1176 -23 -52 -46 -104
-51 -115 -58 -125 -147 -421 -190 -630 -7 -33 -13 -62 -14 -65 0 -3 -4 -27 -9
-55 -4 -27 -9 -63 -12 -79 -3 -16 -7 -50 -9 -75 -3 -25 -8 -82 -12 -126 -16
-161 -8 -572 13 -710 2 -16 6 -48 9 -70 17 -152 63 -362 122 -555 70 -230 221
-567 343 -763 30 -48 60 -95 65 -105 24 -42 133 -191 208 -285 228 -282 524
-550 817 -739 144 -93 186 -117 330 -190 189 -96 402 -182 568 -229 43 -12
104 -29 122 -33 8 -2 43 -11 77 -20 82 -22 234 -50 323 -61 25 -3 56 -7 69
-10 103 -20 557 -27 726 -12 113 11 243 28 320 43 11 2 36 7 55 10 66 11 305
75 415 110 575 188 1116 542 1515 993 36 41 70 79 76 85 29 30 185 242 240
326 320 489 508 1033 562 1625 9 101 8 494 -1 600 -8 90 -24 213 -33 257 -2
13 -7 39 -10 58 -54 344 -223 805 -416 1134 -84 142 -271 413 -307 446 -4 3
-38 43 -78 90 -112 133 -343 354 -479 460 -263 204 -552 372 -850 494 -229 93
-531 178 -759 212 -27 4 -57 9 -65 10 -8 2 -44 6 -80 10 -36 3 -78 8 -95 11
-34 5 -531 13 -536 9z m490 -240 c77 -7 269 -32 311 -41 14 -2 50 -10 80 -16
659 -131 1287 -488 1745 -991 99 -108 113 -124 177 -208 310 -406 523 -867
617 -1340 6 -30 14 -66 16 -80 3 -14 10 -59 16 -100 5 -41 12 -86 14 -100 29
-170 24 -592 -10 -820 -23 -156 -26 -171 -46 -265 -111 -505 -358 -1003 -699
-1406 -151 -179 -392 -401 -586 -541 -231 -166 -541 -330 -779 -413 -27 -9
-59 -21 -70 -26 -33 -14 -253 -75 -350 -97 -122 -28 -148 -33 -265 -47 -30 -4
-63 -9 -73 -11 -95 -17 -452 -24 -617 -10 -103 8 -263 28 -330 41 -14 3 -41 8
-60 11 -147 25 -441 115 -620 189 -94 39 -291 139 -396 201 -599 351 -1093
915 -1351 1539 -13 33 -30 74 -38 90 -56 125 -152 478 -179 660 -24 163 -23
158 -32 260 -13 160 -7 529 11 645 2 14 9 61 15 105 13 86 14 94 30 170 6 28
12 59 14 70 2 11 13 56 25 100 236 918 886 1706 1747 2120 306 146 690 261
974 291 36 3 67 8 70 10 3 1 53 6 110 9 58 4 106 8 107 9 6 5 353 -2 422 -8z"/>
<path d="M3458 5835 c-2 -1 -52 -5 -113 -9 -94 -5 -189 -17 -320 -41 -88 -16
-312 -83 -360 -108 -20 -10 -54 -45 -56 -56 0 -3 -3 -18 -5 -32 -2 -14 3 -42
11 -62 25 -61 97 -83 170 -53 43 18 238 73 285 81 19 3 49 8 65 12 17 3 41 7
55 9 14 2 52 7 85 11 143 18 461 7 600 -21 147 -30 165 -31 201 -11 75 40 85
131 21 188 -27 23 -78 36 -247 63 -19 3 -46 7 -60 10 -14 3 -83 7 -155 10 -71
3 -140 6 -152 8 -13 2 -24 2 -25 1z"/>
<path d="M2055 5240 c-11 -4 -31 -20 -45 -35 l-25 -27 -1 -549 c-1 -303 1
-562 4 -576 3 -16 67 -89 174 -196 l169 -171 -6 -116 c-3 -63 -7 -153 -10
-200 -5 -91 -13 -258 -20 -405 -3 -49 -7 -135 -10 -190 -3 -55 -8 -145 -10
-200 -3 -55 -7 -140 -10 -190 -2 -49 -7 -148 -10 -220 -3 -71 -8 -164 -11
-205 -13 -218 -13 -337 1 -383 33 -109 92 -186 185 -239 230 -133 517 -5 580
259 11 50 11 81 -5 383 -6 109 -15 301 -20 405 -3 50 -7 133 -10 185 -3 52 -7
145 -10 205 -3 61 -8 153 -10 205 -3 52 -7 140 -10 195 -3 55 -7 143 -10 195
-3 52 -7 145 -10 206 l-6 111 164 164 c117 117 167 174 175 199 7 23 10 221 9
577 -2 533 -2 542 -23 570 -47 62 -123 68 -178 14 l-31 -31 -1 -524 -1 -525
-163 -163 c-90 -89 -169 -177 -176 -194 -7 -17 -11 -55 -9 -90 2 -32 6 -116
10 -186 3 -70 7 -162 10 -205 2 -43 7 -132 10 -198 3 -66 8 -154 10 -195 2
-41 7 -136 10 -210 3 -74 8 -160 10 -190 2 -30 6 -116 10 -190 3 -74 7 -169
10 -210 24 -443 24 -460 -8 -509 -33 -50 -86 -75 -147 -69 -90 9 -148 78 -145
173 2 45 12 258 20 405 2 30 6 120 10 200 4 80 8 170 10 201 2 32 6 117 10
190 3 74 7 163 10 199 2 36 7 128 10 205 3 77 8 165 10 195 2 30 7 120 10 200
3 80 8 169 10 199 2 31 -1 67 -9 85 -7 18 -87 105 -176 194 l-164 162 1 508
c1 485 0 509 -18 549 -26 55 -86 77 -144 53z"/>
<path d="M2400 5237 c-13 -7 -34 -27 -46 -44 -21 -31 -21 -37 -20 -530 1 -385
4 -503 14 -521 41 -72 153 -75 199 -6 17 26 18 62 19 524 1 394 -2 500 -12
522 -30 60 -97 84 -154 55z"/>
<path d="M2755 5241 c-11 -5 -31 -21 -45 -36 l-25 -27 -1 -496 c-1 -279 3
-508 8 -522 31 -86 155 -100 205 -24 17 26 18 62 19 519 1 270 -3 502 -8 516
-20 58 -99 94 -153 70z"/>
<path d="M4245 5234 c-102 -27 -162 -62 -248 -143 -47 -45 -110 -142 -127
-198 -101 -329 -96 -312 -106 -373 -3 -19 -7 -37 -9 -40 -10 -16 -19 -161 -18
-270 3 -242 57 -394 183 -521 37 -37 83 -75 101 -84 39 -20 48 -32 44 -55 -2
-9 -6 -97 -10 -195 -3 -99 -8 -205 -10 -235 -2 -30 -7 -120 -10 -200 -11 -278
-15 -366 -20 -460 -2 -52 -7 -153 -10 -225 -28 -611 -28 -600 -11 -664 44
-173 208 -292 393 -285 152 5 281 87 349 221 28 56 29 62 28 203 0 125 -5 271
-19 535 -1 33 -6 128 -9 210 -8 174 -15 323 -21 450 -4 96 -15 338 -20 445 -8
179 -7 234 4 238 6 2 38 23 70 47 131 96 215 250 236 430 13 104 12 256 -1
352 -24 171 -111 464 -170 569 -61 112 -196 213 -326 247 -70 18 -196 19 -263
1z m249 -243 c75 -33 144 -106 166 -178 104 -338 122 -425 121 -574 0 -123
-16 -221 -46 -286 -33 -73 -110 -147 -189 -183 -96 -43 -100 -53 -91 -264 3
-94 8 -202 10 -241 2 -38 6 -133 10 -210 3 -77 8 -176 10 -220 2 -44 6 -138 9
-210 11 -257 18 -411 21 -475 24 -465 24 -517 0 -558 -29 -48 -94 -76 -157
-69 -103 13 -151 76 -143 189 2 35 7 128 10 208 6 141 9 203 20 440 3 63 7
174 10 245 3 72 7 168 10 215 2 47 7 153 10 235 4 83 8 175 10 205 2 30 6 136
10 236 9 221 6 231 -88 273 -122 56 -203 159 -226 291 -14 81 -11 294 5 380
16 85 100 371 121 412 69 137 244 200 387 139z"/>
<path d="M5154 5035 c-43 -18 -74 -61 -74 -102 0 -31 14 -70 29 -83 17 -14
126 -166 175 -243 100 -161 221 -443 251 -587 2 -8 8 -35 14 -60 10 -46 12
-57 32 -175 14 -87 20 -409 9 -490 -5 -33 -11 -80 -14 -105 -15 -122 -75 -353
-116 -445 -5 -11 -25 -57 -44 -101 -73 -166 -173 -327 -297 -479 -31 -39 -65
-77 -75 -85 -9 -8 -35 -37 -56 -63 -28 -37 -38 -58 -38 -86 0 -74 68 -129 142
-114 71 14 302 296 441 538 105 183 217 480 250 665 3 14 8 43 12 65 12 65 13
68 20 125 3 30 8 69 10 85 6 40 7 375 1 400 -2 11 -7 54 -12 95 -4 41 -8 77
-9 80 -1 3 -5 25 -9 50 -4 25 -19 89 -32 144 -79 317 -211 589 -417 863 -83
109 -129 135 -193 108z"/>
<path d="M1651 4907 c-29 -14 -140 -178 -214 -317 -126 -237 -212 -503 -247
-765 -20 -150 -21 -175 -21 -320 1 -146 2 -174 16 -300 26 -237 128 -561 247
-785 47 -89 180 -299 219 -344 196 -235 220 -256 289 -256 40 0 96 51 102 92
8 52 -7 85 -66 146 -306 319 -503 736 -560 1182 -13 104 -14 433 -2 515 56
366 148 614 338 906 50 78 69 116 70 143 3 84 -92 141 -171 103z"/>
<path d="M3201 1405 c-95 -32 -101 -168 -10 -212 71 -34 552 -33 619 2 61 32
85 97 55 154 -26 51 -58 66 -134 61 -98 -6 -421 -5 -461 2 -19 3 -51 0 -69 -7z"/>
</g>
</svg>
